<?xml version="1.0" encoding="UTF-8"?>
<svg xmlns="http://www.w3.org/2000/svg" viewBox="0 0 1600 900">
  <path d="M0,558 C160,538 320,550 480,540 C640,530 800,546 960,535 C1120,524 1280,544 1440,533 L1600,538 L1600,900 L0,900 Z"
    fill="{{duneFar}}"/>
  <path d="M0,582 C200,518 380,546 520,508 C640,476 760,515 880,496 C1000,476 1140,513 1280,492 C1440,475 1540,498 1600,506 L1600,900 L0,900 Z"
    fill="{{duneMidFar}}"/>
  <path d="M0,622 C180,478 380,536 560,474 C680,434 820,471 960,453 C1080,438 1220,476 1360,456 C1480,440 1542,463 1600,471 L1600,900 L0,900 Z"
    fill="{{duneMidNear}}"/>
  <path d="M-20,722 C160,440 400,592 580,458 C720,360 900,438 1062,414 C1200,394 1362,448 1502,410 C1562,392 1592,402 1620,410 L1620,900 L-20,900 Z"
    fill="{{duneFront}}"/>
</svg>
